<svg version="1.1" id="Layer_1" xmlns="http://www.w3.org/2000/svg" xmlns:xlink="http://www.w3.org/1999/xlink" x="0px" y="0px" viewBox="0 75 500 350" style="width: 166px;" xml:space="preserve" data-imageid="bug-fixing-60" imageName="Bug Fixing" class="illustrations_image">
<style type="text/css">
	.st0_bug-fixing-60{fill:#093F68;}
	.st1_bug-fixing-60{fill:#F56132;}
	.st2_bug-fixing-60{fill:#68E1FD;}
	.st3_bug-fixing-60{fill:#FFFFFF;}
	.st4_bug-fixing-60{fill:none;}
</style>
<g id="bug_bug-fixing-60">
	<path class="st0_bug-fixing-60" d="M133.7,200.2c-0.6,0-1.2-0.1-1.7-0.4l-44.1-18.7c-1.3-0.6-2.3-1.7-2.6-3.2l-9.2-47.9c-0.5-2.4,1.1-4.6,3.4-5.1&#10;&#9;&#9;s4.6,1.1,5.1,3.4l8.7,45.6l41.9,17.8c2.2,0.9,3.2,3.5,2.3,5.7C137,199.2,135.4,200.2,133.7,200.2L133.7,200.2z"/>
	<path class="st0_bug-fixing-60" d="M80.4,373.8c-0.3,0-0.5,0-0.8-0.1c-2.4-0.4-3.9-2.7-3.5-5.1c0,0,0,0,0,0l9.2-47.9c0.3-1.4,1.2-2.6,2.6-3.2&#10;&#9;&#9;l44.1-18.7c2.2-0.9,4.8,0.1,5.7,2.3c0.9,2.2-0.1,4.8-2.3,5.7l0,0l-41.9,17.8l-8.7,45.6C84.3,372.3,82.5,373.8,80.4,373.8z"/>
	<path class="st0_bug-fixing-60" d="M62.1,268.3c-2.4,0-4.3-1.9-4.3-4.3c0-1,0.3-1.9,1-2.7l11.8-14.6c0.8-1,2.1-1.6,3.4-1.6h46.5&#10;&#9;&#9;c2.4,0.1,4.3,2.2,4.1,4.6c-0.1,2.2-1.9,4-4.1,4.1H76l-10.5,13C64.7,267.7,63.4,268.3,62.1,268.3z"/>
	<path class="st0_bug-fixing-60" d="M303.8,200.2c-2.4,0-4.3-2-4.3-4.4c0-1.7,1-3.3,2.6-4l42-17.8l8.7-45.6c0.5-2.4,2.7-3.9,5.1-3.4&#10;&#9;&#9;c2.4,0.5,3.9,2.7,3.5,5.1l-9.2,47.9c-0.3,1.4-1.2,2.6-2.6,3.2l-44.1,18.7C304.9,200.1,304.3,200.2,303.8,200.2z"/>
	<path class="st0_bug-fixing-60" d="M357,373.8c-2.1,0-3.9-1.5-4.3-3.5l-8.7-45.6l-41.9-17.8c-2.2-0.9-3.2-3.5-2.3-5.7s3.5-3.2,5.7-2.3l44.1,18.7&#10;&#9;&#9;c1.3,0.6,2.3,1.8,2.6,3.2l9.2,47.9c0.5,2.4-1.1,4.6-3.4,5.1c0,0,0,0,0,0C357.5,373.8,357.3,373.8,357,373.8z"/>
	<path class="st0_bug-fixing-60" d="M375.4,268.3c-1.3,0-2.6-0.6-3.4-1.6l-10.5-13H317c-2.4-0.1-4.3-2.2-4.1-4.6c0.1-2.2,1.9-4,4.1-4.1h46.5&#10;&#9;&#9;c1.3,0,2.6,0.6,3.4,1.6l11.8,14.6c1.5,1.9,1.2,4.6-0.7,6.1C377.3,268,376.3,268.3,375.4,268.3L375.4,268.3z"/>
	<circle class="st1_bug-fixing-60" cx="218.7" cy="249.3" r="98.1"/>
	<path class="st0_bug-fixing-60" d="M218.7,349.6c-55.4,0-100.2-44.9-100.2-100.2s44.9-100.2,100.2-100.2S318.9,194,318.9,249.3&#10;&#9;&#9;C318.9,304.7,274,349.5,218.7,349.6z M218.7,153.4c-53,0-95.9,42.9-95.9,95.9c0,53,42.9,95.9,95.9,95.9s95.9-42.9,95.9-95.9&#10;&#9;&#9;c0,0,0,0,0,0C314.5,196.4,271.6,153.5,218.7,153.4z"/>
	<path class="st0_bug-fixing-60" d="M272.3,166.6L218.7,204l-53.6-37.4c0-20.6,24-37.4,53.6-37.4S272.3,146,272.3,166.6z"/>
	<path class="st0_bug-fixing-60" d="M218.7,206.1c-0.4,0-0.9-0.1-1.2-0.4l-53.6-37.4c-0.6-0.4-0.9-1.1-0.9-1.8c0-21.8,25-39.6,55.8-39.6&#10;&#9;&#9;s55.7,17.7,55.7,39.6c0,0.7-0.3,1.4-0.9,1.8l-53.6,37.4C219.6,206,219.1,206.1,218.7,206.1z M167.3,165.5l51.4,35.8l51.4-35.8&#10;&#9;&#9;c-0.9-18.9-23.6-34.1-51.4-34.1S168.2,146.6,167.3,165.5L167.3,165.5z M272.3,166.6L272.3,166.6z"/>
	<path class="st0_bug-fixing-60" d="M218.7,349.6c-1.2,0-2.2-1-2.2-2.2l0,0V204c0-1.2,1-2.2,2.2-2.2c1.2,0,2.2,1,2.2,2.2v143.4&#10;&#9;&#9;C220.9,348.6,219.9,349.6,218.7,349.6z"/>
	<path class="st0_bug-fixing-60" d="M249.7,138.3c-0.3,0-0.5-0.1-0.8-0.2c-1.1-0.4-1.7-1.7-1.2-2.8c0,0,0,0,0,0c0.5-1.3,12.8-31.8,29.7-46.6&#10;&#9;&#9;c0.9-0.8,2.3-0.7,3.1,0.2s0.7,2.3-0.2,3.1c-16.2,14.1-28.5,44.7-28.6,45C251.3,137.8,250.5,138.3,249.7,138.3z"/>
	<path class="st0_bug-fixing-60" d="M184,138.3c-0.9,0-1.7-0.6-2-1.4c-0.1-0.3-12.4-30.8-28.6-45c-0.9-0.8-1-2.2-0.2-3.1c0.8-0.9,2.2-1,3.1-0.2&#10;&#9;&#9;c16.9,14.9,29.2,45.3,29.7,46.7c0.4,1.1-0.1,2.4-1.2,2.8c0,0,0,0,0,0C184.5,138.2,184.3,138.3,184,138.3z"/>
</g>
<g id="setting_bug-fixing-60">
	<circle class="st2_bug-fixing-60 targetColor" cx="346.2" cy="315.8" r="93.9" style="fill: rgb(125, 211, 252);"/>
	<path class="st0_bug-fixing-60" d="M346.2,411.8c-53.1,0-96.1-43-96.1-96.1s43-96.1,96.1-96.1s96.1,43,96.1,96.1c0,0,0,0,0,0&#10;&#9;&#9;C442.2,368.8,399.2,411.8,346.2,411.8z M346.2,224.1c-50.7,0-91.7,41.1-91.7,91.7s41.1,91.7,91.7,91.7s91.7-41.1,91.7-91.7&#10;&#9;&#9;c0,0,0,0,0,0C437.8,265.1,396.8,224.1,346.2,224.1z"/>
	<polygon class="st3_bug-fixing-60" points="331.3,285.7 307.8,309.2 286.8,279.7 301.9,264.6 &#9;"/>
	<path class="st0_bug-fixing-60" d="M307.8,311.4h-0.2c-0.6,0-1.2-0.4-1.6-0.9L285,281c-0.6-0.9-0.5-2.1,0.2-2.8l15.1-15.1&#10;&#9;&#9;c0.8-0.8,1.9-0.8,2.8-0.2l29.4,21.1c0.5,0.4,0.9,1,0.9,1.6c0.1,0.6-0.2,1.3-0.6,1.7l-23.5,23.5C309,311.2,308.4,311.4,307.8,311.4z&#10;&#9;&#9; M289.6,280l18.5,25.9L328,286l-25.9-18.5L289.6,280z"/>
	<polygon class="st3_bug-fixing-60" points="331.3,285.7 307.8,309.2 322.9,309.8 331.9,300.7 &#9;"/>
	<path class="st0_bug-fixing-60" d="M322.9,312L322.9,312l-15.1-0.6c-0.9,0-1.6-0.6-1.9-1.4c-0.3-0.8-0.1-1.7,0.5-2.3l23.5-23.5&#10;&#9;&#9;c0.6-0.6,1.5-0.8,2.3-0.5c0.8,0.3,1.4,1.1,1.4,1.9l0.6,15c0,0.6-0.2,1.2-0.6,1.6l-9.1,9.1C324,311.8,323.4,312,322.9,312z&#10;&#9;&#9; M312.9,307.2l9.1,0.4l7.7-7.7l-0.4-9.1L312.9,307.2z"/>
	<polygon class="st3_bug-fixing-60" points="359.4,327.4 349.4,337.4 322.9,309.8 331.8,300.8 &#9;"/>
	<path class="st0_bug-fixing-60" d="M349.4,339.6L349.4,339.6c-0.6,0-1.1-0.2-1.5-0.7l-26.6-27.6c-0.8-0.8-0.8-2.2,0-3l9-9c0.8-0.8,2.2-0.8,3,0&#10;&#9;&#9;l27.6,26.6c0.4,0.4,0.7,1,0.7,1.5c0,0.6-0.2,1.1-0.6,1.6l-10,10C350.5,339.4,350,339.6,349.4,339.6z M325.9,309.8l23.5,24.4&#10;&#9;&#9;l6.9-6.9l-24.5-23.5L325.9,309.8z"/>
	<path class="st3_bug-fixing-60" d="M345.2,338l14.8-14.8c1.3-1.3,3.3-1.3,4.6,0l31.2,31.2c1.3,1.3,1.3,3.3,0,4.6L381,373.8&#10;&#9;&#9;c-1.3,1.3-3.3,1.3-4.6,0l-31.2-31.2C343.9,341.3,343.9,339.3,345.2,338z"/>
	<path class="st0_bug-fixing-60" d="M378.7,375.4c-2.4,0-4.8-1-6.5-2.7l-25.8-25.8c-3.6-3.6-3.6-9.5,0-13.1l9.4-9.4c3.6-3.6,9.5-3.6,13.1,0&#10;&#9;&#9;l25.8,25.8c3.6,3.6,3.6,9.5,0,13.1l-9.4,9.4C383.5,374.4,381.2,375.4,378.7,375.4z M362.2,326c-1.3,0-2.5,0.5-3.5,1.4l-9.4,9.4&#10;&#9;&#9;c-1.9,1.9-1.9,5,0,6.9l25.8,25.8c1.9,1.9,5,1.9,6.9,0l9.4-9.4c1.9-1.9,1.9-5,0-6.9c0,0,0,0,0,0l-25.8-25.8&#10;&#9;&#9;C364.8,326.6,363.5,326.1,362.2,326L362.2,326z"/>
	<line class="st4_bug-fixing-60" x1="356.4" y1="326.8" x2="392.2" y2="362.6"/>
	<path class="st0_bug-fixing-60" d="M392.2,364.8c-0.6,0-1.1-0.2-1.5-0.6l-35.8-35.8c-0.8-0.8-0.8-2.2,0-3.1s2.2-0.8,3.1,0l35.8,35.8&#10;&#9;&#9;c0.8,0.8,0.8,2.2,0,3.1C393.3,364.6,392.8,364.8,392.2,364.8L392.2,364.8z"/>
	<line class="st4_bug-fixing-60" x1="349.5" y1="333.7" x2="385.3" y2="369.5"/>
	<path class="st0_bug-fixing-60" d="M385.3,371.7c-0.6,0-1.1-0.2-1.5-0.6L348,335.2c-0.8-0.8-0.8-2.2,0-3.1s2.2-0.8,3.1,0l35.8,35.9&#10;&#9;&#9;c0.8,0.8,0.8,2.2,0,3.1C386.4,371.5,385.9,371.7,385.3,371.7L385.3,371.7z"/>
	<path class="st3_bug-fixing-60" d="M402.6,308.2c8.7-8.7,11-21.8,5.9-33l-15.4,15.4l-12.4-1.1l-3-14.3l14.9-14.9c-15-5.9-32,1.6-37.8,16.6&#10;&#9;&#9;c-2,5.2-2.5,10.8-1.5,16.2l-47.6,47.6c-6.5,6.2-6.7,16.5-0.5,23.1s16.5,6.7,23.1,0.5c0.2-0.2,0.3-0.3,0.5-0.5l47.6-47.6&#10;&#9;&#9;C385.8,318.1,395.7,315.1,402.6,308.2z M313.7,355.8c-2.8-2.8-2.8-7.4,0-10.2s7.4-2.8,10.2,0c2.8,2.8,2.8,7.3,0,10.1&#10;&#9;&#9;C321.1,358.6,316.5,358.6,313.7,355.8z"/>
	<path class="st0_bug-fixing-60" d="M317.1,370.8c-10.2,0-18.5-8.3-18.5-18.5c0-4.9,1.9-9.6,5.4-13l46.9-46.9c-2.7-17.1,9-33.2,26.1-35.9&#10;&#9;&#9;c5.5-0.9,11.1-0.2,16.3,1.8c1.1,0.4,1.7,1.7,1.2,2.8c-0.1,0.3-0.3,0.5-0.5,0.8l-14,14l2.4,11.6l9.8,0.9l14.6-14.6&#10;&#9;&#9;c0.8-0.8,2.2-0.8,3.1,0c0.2,0.2,0.3,0.4,0.4,0.6c7.3,15.7,0.5,34.4-15.2,41.7c-5.7,2.6-12,3.5-18.2,2.5l-46.8,46.8&#10;&#9;&#9;C326.7,368.9,322,370.8,317.1,370.8z M381.9,260.5c-14.9,0-27,12.1-27,27.1c0,1.7,0.2,3.5,0.5,5.2c0.1,0.7-0.1,1.4-0.6,2&#10;&#9;&#9;l-47.6,47.6c-5.5,5.5-5.5,14.5,0,20s14.5,5.5,20,0l47.6-47.6c0.5-0.5,1.3-0.8,2-0.6c14.7,2.9,28.9-6.7,31.7-21.4&#10;&#9;&#9;c0.9-4.5,0.6-9.2-0.9-13.6l-13,13c-0.5,0.5-1.1,0.7-1.7,0.6l-12.4-1.1c-1-0.1-1.7-0.8-1.9-1.7l-3-14.3c-0.2-0.7,0.1-1.5,0.6-2&#10;&#9;&#9;l12.4-12.4C386.4,260.7,384.2,260.5,381.9,260.5z M318.8,360c-5.2,0-9.3-4.2-9.3-9.4c0-5.2,4.2-9.3,9.4-9.3c5.2,0,9.3,4.2,9.3,9.4&#10;&#9;&#9;c0,2.5-1,4.9-2.7,6.6C323.7,359,321.3,360,318.8,360z M318.8,345.6c-2.8,0-5,2.2-5,5c0,2.8,2.2,5,5,5c2.8,0,5-2.2,5-5&#10;&#9;&#9;c0-1.3-0.5-2.6-1.5-3.5C321.4,346.2,320.1,345.7,318.8,345.6L318.8,345.6z"/>
</g>
</svg>